<mxfile host="app.diagrams.net" modified="2022-05-27T09:27:02.736Z" agent="5.0 (Windows NT 10.0; Win64; x64) AppleWebKit/537.36 (KHTML, like Gecko) Chrome/101.0.4951.64 Safari/537.36 Edg/101.0.1210.47" etag="Vjl1WkBxhd7qZetPCCvN" version="18.1.3" type="github">
  <diagram id="ejHt-zpbZrs3eQ-xetm7" name="Page-1">
    <mxGraphModel dx="976" dy="619" grid="1" gridSize="10" guides="1" tooltips="1" connect="1" arrows="1" fold="1" page="1" pageScale="1" pageWidth="850" pageHeight="1100" math="0" shadow="0">
      <root>
        <mxCell id="0" />
        <mxCell id="1" parent="0" />
        <mxCell id="CniC3_cJFygSz2GTEnlT-1" value="OnePose" style="rounded=0;whiteSpace=wrap;html=1;" parent="1" vertex="1">
          <mxGeometry x="350" y="10" width="120" height="20" as="geometry" />
        </mxCell>
        <mxCell id="l7FmCVnBtzW14jIb1h8D-5" value="" style="edgeStyle=orthogonalEdgeStyle;rounded=0;orthogonalLoop=1;jettySize=auto;html=1;" edge="1" parent="1" source="l7FmCVnBtzW14jIb1h8D-1" target="l7FmCVnBtzW14jIb1h8D-4">
          <mxGeometry relative="1" as="geometry" />
        </mxCell>
        <mxCell id="l7FmCVnBtzW14jIb1h8D-1" value="Video sequence" style="rounded=0;whiteSpace=wrap;html=1;" vertex="1" parent="1">
          <mxGeometry x="90" y="100" width="120" height="40" as="geometry" />
        </mxCell>
        <mxCell id="l7FmCVnBtzW14jIb1h8D-10" style="edgeStyle=orthogonalEdgeStyle;rounded=0;orthogonalLoop=1;jettySize=auto;html=1;entryX=0.25;entryY=0;entryDx=0;entryDy=0;" edge="1" parent="1" source="l7FmCVnBtzW14jIb1h8D-4" target="l7FmCVnBtzW14jIb1h8D-12">
          <mxGeometry relative="1" as="geometry">
            <mxPoint x="184" y="280.64" as="targetPoint" />
          </mxGeometry>
        </mxCell>
        <mxCell id="l7FmCVnBtzW14jIb1h8D-4" value="SfM" style="rounded=0;whiteSpace=wrap;html=1;" vertex="1" parent="1">
          <mxGeometry x="90" y="170" width="120" height="40" as="geometry" />
        </mxCell>
        <mxCell id="l7FmCVnBtzW14jIb1h8D-6" value="offline" style="text;html=1;strokeColor=none;fillColor=none;align=center;verticalAlign=middle;whiteSpace=wrap;rounded=0;" vertex="1" parent="1">
          <mxGeometry x="120" y="70" width="60" height="30" as="geometry" />
        </mxCell>
        <mxCell id="l7FmCVnBtzW14jIb1h8D-7" value="online" style="text;html=1;strokeColor=none;fillColor=none;align=center;verticalAlign=middle;whiteSpace=wrap;rounded=0;" vertex="1" parent="1">
          <mxGeometry x="280" y="70" width="60" height="30" as="geometry" />
        </mxCell>
        <mxCell id="l7FmCVnBtzW14jIb1h8D-11" style="edgeStyle=orthogonalEdgeStyle;rounded=0;orthogonalLoop=1;jettySize=auto;html=1;entryX=0.75;entryY=0;entryDx=0;entryDy=0;" edge="1" parent="1" source="l7FmCVnBtzW14jIb1h8D-8" target="l7FmCVnBtzW14jIb1h8D-12">
          <mxGeometry relative="1" as="geometry">
            <mxPoint x="270" y="280" as="targetPoint" />
          </mxGeometry>
        </mxCell>
        <mxCell id="l7FmCVnBtzW14jIb1h8D-8" value="query image" style="rounded=0;whiteSpace=wrap;html=1;" vertex="1" parent="1">
          <mxGeometry x="250" y="100" width="120" height="40" as="geometry" />
        </mxCell>
        <mxCell id="l7FmCVnBtzW14jIb1h8D-16" value="" style="edgeStyle=orthogonalEdgeStyle;rounded=0;orthogonalLoop=1;jettySize=auto;html=1;" edge="1" parent="1" source="l7FmCVnBtzW14jIb1h8D-12" target="l7FmCVnBtzW14jIb1h8D-13">
          <mxGeometry relative="1" as="geometry" />
        </mxCell>
        <mxCell id="l7FmCVnBtzW14jIb1h8D-12" value="2D-3D matcher" style="rounded=1;whiteSpace=wrap;html=1;" vertex="1" parent="1">
          <mxGeometry x="170" y="280" width="120" height="60" as="geometry" />
        </mxCell>
        <mxCell id="l7FmCVnBtzW14jIb1h8D-15" value="" style="edgeStyle=orthogonalEdgeStyle;rounded=0;orthogonalLoop=1;jettySize=auto;html=1;" edge="1" parent="1" source="l7FmCVnBtzW14jIb1h8D-13" target="l7FmCVnBtzW14jIb1h8D-14">
          <mxGeometry relative="1" as="geometry" />
        </mxCell>
        <mxCell id="l7FmCVnBtzW14jIb1h8D-13" value="camera pose" style="rounded=0;whiteSpace=wrap;html=1;" vertex="1" parent="1">
          <mxGeometry x="170" y="380" width="120" height="40" as="geometry" />
        </mxCell>
        <mxCell id="l7FmCVnBtzW14jIb1h8D-14" value="object pose" style="rounded=0;whiteSpace=wrap;html=1;" vertex="1" parent="1">
          <mxGeometry x="170" y="460" width="120" height="40" as="geometry" />
        </mxCell>
      </root>
    </mxGraphModel>
  </diagram>
</mxfile>
